# xmcd CD database file
#
# Track frame offsets:
#	182
#	12077
#	22567
#	37257
#	50577
#	64300
#	77452
#	91742
#	105047
#	117910
#	133185
#	146157
#	158345
#	172017
#	187477
#	199817
#	211795
#	226815
#	241530
#	255180
#	268710
#	281555
#
# Disc length: 3906 seconds
#
# Revision: 0
# Processed by: cddbd v1.5.1PL0 Copyright (c) Steve Scherf et al.
# Submitted via: CDex 1.51
#
DISCID=1e0f4016
DTITLE=Art Tatum - Dizionario Enciclopedico del Jazz - Volume 65
DYEAR=1992
DGENRE=Jazz
TTITLE0=St. Louis Blues
TTITLE1=Tiger Rag
TTITLE2=Sophisticated Lady
TTITLE3=I Would Do Anything For You
TTITLE4=When A Woman Loves A MAn
TTITLE5=Love Me
TTITLE6=After You've Gone
TTITLE7=Ill Wind
TTITLE8=Liza
TTITLE9=I Ain't Got Nobody
TTITLE10=Beautiful Love
TTITLE11=With Plenty Of Money And You (Oh' Baby What I Couldn't Do)
TTITLE12=I've Got My Love To Keep Me Warm
TTITLE13=Chlo-E
TTITLE14=The Sheik Of Araby
TTITLE15=Tea For Two
TTITLE16=Deep Purple
TTITLE17=Elegie
TTITLE18=Sweet Lorraine
TTITLE19=Sweet Emaline My Gal
TTITLE20=Cocktails For Two
TTITLE21=St. Louis Blues
EXTD=YEAR: 1992
EXTT0=
EXTT1=
EXTT2=
EXTT3=
EXTT4=
EXTT5=
EXTT6=
EXTT7=
EXTT8=
EXTT9=
EXTT10=
EXTT11=
EXTT12=
EXTT13=
EXTT14=
EXTT15=
EXTT16=
EXTT17=
EXTT18=
EXTT19=
EXTT20=
EXTT21=
PLAYORDER=
